<svg width="12" height="12" viewBox="0 0 12 12" fill="none" xmlns="http://www.w3.org/2000/svg">
<path d="M6 11.25C3.10051 11.25 0.75 8.8995 0.75 6C0.75 3.10051 3.10051 0.75 6 0.75C8.8995 0.75 11.25 3.10051 11.25 6C11.25 8.8995 8.8995 11.25 6 11.25ZM6 12C9.31371 12 12 9.31371 12 6C12 2.68629 9.31371 0 6 0C2.68629 0 0 2.68629 0 6C0 9.31371 2.68629 12 6 12Z" fill="#918F92"/>
<path d="M5.25116 8.25C5.25116 7.83579 5.58694 7.5 6.00116 7.5C6.41537 7.5 6.75116 7.83579 6.75116 8.25C6.75116 8.66421 6.41537 9 6.00116 9C5.58694 9 5.25116 8.66421 5.25116 8.25Z" fill="#918F92"/>
<path d="M5.32463 3.74628C5.28467 3.34671 5.59844 3 6 3C6.40156 3 6.71533 3.34671 6.67537 3.74628L6.41231 6.37686C6.39113 6.58869 6.21288 6.75 6 6.75C5.78712 6.75 5.60887 6.58869 5.58769 6.37686L5.32463 3.74628Z" fill="#918F92"/>
</svg>
