<svg width="12" height="15" viewBox="0 0 12 15" fill="none" xmlns="http://www.w3.org/2000/svg">
<path d="M11.8334 11.0046V13.5046C11.8334 14.0046 11.5001 14.3379 11.0001 14.3379H1.00008C0.500081 14.3379 0.166748 14.0046 0.166748 13.5046V11.0046C1.08341 11.0046 1.83341 10.2546 1.83341 9.33793V6.83793C1.83341 4.83793 3.25008 3.17126 5.16675 2.7546V1.0046C5.16675 0.504598 5.50008 0.171265 6.00008 0.171265C6.50008 0.171265 6.83341 0.504598 6.83341 1.0046V2.7546C8.75008 3.17126 10.1667 4.83793 10.1667 6.83793V9.33793C10.1667 10.2546 10.9167 11.0046 11.8334 11.0046ZM5.16675 6.83793C5.16675 6.33793 5.50008 6.0046 6.00008 6.0046C6.50008 6.0046 6.83341 5.67126 6.83341 5.17126C6.83341 4.67126 6.50008 4.33793 6.00008 4.33793C4.58341 4.33793 3.50008 5.42126 3.50008 6.83793C3.50008 7.33793 3.83341 7.67126 4.33341 7.67126C4.83341 7.67126 5.16675 7.33793 5.16675 6.83793Z" fill="white"/>
</svg>
