<svg width="12" height="12" viewBox="0 0 12 12" fill="none" xmlns="http://www.w3.org/2000/svg">
<path fill-rule="evenodd" clip-rule="evenodd" d="M4.37152 7.62851C4.22507 7.48207 3.98764 7.48207 3.84119 7.62851L0.769044 10.7007L0.769044 8.62483C0.769044 8.41772 0.60115 8.24983 0.394044 8.24983C0.186937 8.24983 0.019043 8.41772 0.0190432 8.62483L0.019043 11.606C0.019043 11.8131 0.186937 11.981 0.394043 11.981L3.37517 11.981C3.58228 11.981 3.75017 11.8131 3.75017 11.606C3.75017 11.3989 3.58228 11.231 3.37517 11.231L1.29937 11.231L4.37152 8.15884C4.51797 8.0124 4.51797 7.77496 4.37152 7.62851Z" fill="#918F92"/>
<path fill-rule="evenodd" clip-rule="evenodd" d="M7.62848 4.37149C7.77493 4.51793 8.01236 4.51793 8.15881 4.37149L11.231 1.29934L11.231 3.37517C11.231 3.58228 11.3988 3.75017 11.606 3.75017C11.8131 3.75017 11.981 3.58228 11.981 3.37517L11.981 0.394013C11.981 0.186906 11.8131 0.0190125 11.606 0.0190125L8.62483 0.0190148C8.41772 0.0190148 8.24983 0.186908 8.24983 0.394015C8.24983 0.601122 8.41772 0.769016 8.62483 0.769015L10.7006 0.769014L7.62848 3.84116C7.48203 3.9876 7.48203 4.22504 7.62848 4.37149Z" fill="#918F92"/>
</svg>
