<svg width="20" height="24" viewBox="0 0 20 24" fill="none" xmlns="http://www.w3.org/2000/svg">
<path d="M19.3332 18V22C19.3332 22.8 18.7998 23.3333 17.9998 23.3333H1.99984C1.19984 23.3333 0.666504 22.8 0.666504 22V18C2.13317 18 3.33317 16.8 3.33317 15.3333V11.3333C3.33317 8.13329 5.59984 5.46663 8.6665 4.79996V1.99996C8.6665 1.19996 9.19984 0.666626 9.99984 0.666626C10.7998 0.666626 11.3332 1.19996 11.3332 1.99996V4.79996C14.3998 5.46663 16.6665 8.13329 16.6665 11.3333V15.3333C16.6665 16.8 17.8665 18 19.3332 18ZM8.6665 11.3333C8.6665 10.5333 9.19984 9.99996 9.99984 9.99996C10.7998 9.99996 11.3332 9.46663 11.3332 8.66663C11.3332 7.86663 10.7998 7.33329 9.99984 7.33329C7.73317 7.33329 5.99984 9.06663 5.99984 11.3333C5.99984 12.1333 6.53317 12.6666 7.33317 12.6666C8.13317 12.6666 8.6665 12.1333 8.6665 11.3333Z" fill="#0078CF"/>
</svg>
