<svg width="20" height="21" viewBox="0 0 20 21" fill="none" xmlns="http://www.w3.org/2000/svg">
<path opacity="0.3" d="M16.6667 15.5046H3.33333C2.83333 15.5046 2.5 15.1713 2.5 14.6713V6.33797C2.5 5.83797 2.83333 5.50464 3.33333 5.50464H16.6667C17.1667 5.50464 17.5 5.83797 17.5 6.33797V14.6713C17.5 15.1713 17.1667 15.5046 16.6667 15.5046ZM10 7.17131C8.58333 7.17131 7.5 8.67131 7.5 10.5046C7.5 12.338 8.58333 13.838 10 13.838C11.4167 13.838 12.5 12.338 12.5 10.5046C12.5 8.67131 11.4167 7.17131 10 7.17131Z" fill="white"/>
<path d="M15 5.50464H16.6667C17.1667 5.50464 17.5 5.83797 17.5 6.33797V8.00464C16.0833 8.00464 15 6.92131 15 5.50464ZM5 5.50464H3.33333C2.83333 5.50464 2.5 5.83797 2.5 6.33797V8.00464C3.91667 8.00464 5 6.92131 5 5.50464ZM17.5 14.6713V13.0046C16.0833 13.0046 15 14.088 15 15.5046H16.6667C17.1667 15.5046 17.5 15.1713 17.5 14.6713ZM2.5 13.0046V14.6713C2.5 15.1713 2.83333 15.5046 3.33333 15.5046H5C5 14.088 3.91667 13.0046 2.5 13.0046Z" fill="white"/>
</svg>
