<svg width="24" height="25" viewBox="0 0 24 25" fill="none" xmlns="http://www.w3.org/2000/svg">
<path d="M4.50008 4.17126H10.3334C10.8334 4.17126 11.1667 4.5046 11.1667 5.0046V10.8379C11.1667 11.3379 10.8334 11.6713 10.3334 11.6713H4.50008C4.00008 11.6713 3.66675 11.3379 3.66675 10.8379V5.0046C3.66675 4.5046 4.00008 4.17126 4.50008 4.17126Z" fill="white"/>
<path opacity="0.3" d="M13.6666 4.17126H19.4999C19.9999 4.17126 20.3333 4.5046 20.3333 5.0046V10.8379C20.3333 11.3379 19.9999 11.6713 19.4999 11.6713H13.6666C13.1666 11.6713 12.8333 11.3379 12.8333 10.8379V5.0046C12.8333 4.5046 13.1666 4.17126 13.6666 4.17126Z" fill="white"/>
<path opacity="0.3" d="M4.50008 13.338H10.3334C10.8334 13.338 11.1667 13.6713 11.1667 14.1713V20.0047C11.1667 20.5047 10.8334 20.838 10.3334 20.838H4.50008C4.00008 20.838 3.66675 20.5047 3.66675 20.0047V14.1713C3.66675 13.6713 4.00008 13.338 4.50008 13.338Z" fill="white"/>
<path opacity="0.3" d="M13.6666 13.338H19.4999C19.9999 13.338 20.3333 13.6713 20.3333 14.1713V20.0047C20.3333 20.5047 19.9999 20.838 19.4999 20.838H13.6666C13.1666 20.838 12.8333 20.5047 12.8333 20.0047V14.1713C12.8333 13.6713 13.1666 13.338 13.6666 13.338Z" fill="white"/>
</svg>
