<svg width="24" height="25" viewBox="0 0 24 25" fill="none" xmlns="http://www.w3.org/2000/svg">
<path opacity="0.3" d="M19.4167 13.2546C18.9167 13.2546 18.5834 12.9213 18.5834 12.4213C18.5834 11.9213 18.9167 11.5879 19.4167 11.5879H20.1667C19.7501 7.67126 16.6667 4.5046 12.7501 4.17126V4.92126C12.7501 5.42126 12.4167 5.7546 11.9167 5.7546C11.4167 5.7546 11.0834 5.42126 11.0834 4.92126V4.17126C7.16674 4.58793 4.00008 7.67126 3.66675 11.5879H4.41674C4.91674 11.5879 5.25007 11.9213 5.25007 12.4213C5.25007 12.9213 4.91674 13.2546 4.41674 13.2546H3.66675C4.08341 17.1713 7.16674 20.3379 11.0834 20.6713V19.9213C11.0834 19.4213 11.4167 19.0879 11.9167 19.0879C12.4167 19.0879 12.7501 19.4213 12.7501 19.9213V20.6713C16.6667 20.2546 19.8334 17.1713 20.1667 13.2546H19.4167Z" fill="white"/>
<path d="M16.0834 11.588H13.3334C13.1668 11.338 13.0001 11.1713 12.7501 11.0047V7.42135C12.7501 6.92135 12.4168 6.58801 11.9168 6.58801C11.4168 6.58801 11.0834 6.92135 11.0834 7.42135V11.0047C10.8334 11.1713 10.6668 11.338 10.5001 11.588H10.2501C9.75008 11.588 9.41675 11.9213 9.41675 12.4213C9.41675 12.9213 9.75008 13.2547 10.2501 13.2547H10.5001C10.6668 13.5047 10.8334 13.6713 11.0834 13.838V14.088C11.0834 14.588 11.4168 14.9213 11.9168 14.9213C12.4168 14.9213 12.7501 14.588 12.7501 14.088V13.838C13.0001 13.6713 13.1668 13.5047 13.3334 13.2547H16.0834C16.5834 13.2547 16.9168 12.9213 16.9168 12.4213C16.9168 11.9213 16.5834 11.588 16.0834 11.588Z" fill="white"/>
</svg>
