<svg width="20" height="21" viewBox="0 0 20 21" fill="none" xmlns="http://www.w3.org/2000/svg">
<path d="M7.25008 4.00461L3.33341 5.7547V16.2546L7.25008 14.5047V16.338L2.58341 18.4213C2.16675 18.588 1.66675 18.338 1.66675 17.838V5.50466C1.66675 5.00466 1.91675 4.58795 2.41675 4.42128L7.25008 2.25464V4.00461Z" fill="white"/>
<path d="M12.75 17.0046L16.6667 15.2546V4.75457L12.75 6.50455V4.67126L17.4167 2.58792C17.8333 2.42126 18.3333 2.67122 18.3333 3.17122V15.5046C18.3333 16.0046 18.0833 16.4213 17.5833 16.588L12.75 18.7545V17.0046Z" fill="white"/>
<path opacity="0.3" d="M12.75 6.50461L16.6667 4.75464V15.2547L12.75 17.0047V6.50461Z" fill="white"/>
<path opacity="0.3" d="M7.25 4.00456V2.17126L12.8333 4.67126V6.50456L7.25 4.00456ZM7.25 14.5046V16.3379L12.8333 18.8379V17.0046L7.25 14.5046Z" fill="white"/>
<path opacity="0.3" d="M7.24992 14.5047L3.33325 16.2546V5.75472L7.24992 4.00464V14.5047Z" fill="white"/>
</svg>
