<svg width="24" height="25" viewBox="0 0 24 25" fill="none" xmlns="http://www.w3.org/2000/svg">
<path opacity="0.3" d="M13.6666 5.0046V20.0046H10.3333V5.0046C10.3333 4.5046 10.6666 4.17126 11.1666 4.17126H12.8333C13.3333 4.17126 13.6666 4.5046 13.6666 5.0046ZM7.83325 14.1713H6.16659C5.66659 14.1713 5.33325 14.5046 5.33325 15.0046V20.0046H8.66659V15.0046C8.66659 14.5046 8.33325 14.1713 7.83325 14.1713Z" fill="white"/>
<path d="M19.5001 19.1713H18.6667V9.17135C18.6667 8.67135 18.3334 8.33801 17.8334 8.33801H16.1667C15.6667 8.33801 15.3334 8.67135 15.3334 9.17135V19.1713H4.50008C4.00008 19.1713 3.66675 19.5047 3.66675 20.0047C3.66675 20.5047 4.00008 20.838 4.50008 20.838H19.5001C20.0001 20.838 20.3334 20.5047 20.3334 20.0047C20.3334 19.5047 20.0001 19.1713 19.5001 19.1713Z" fill="white"/>
</svg>
