<svg width="24" height="25" viewBox="0 0 24 25" fill="none" xmlns="http://www.w3.org/2000/svg">
<path opacity="0.3" d="M20.4167 12.0879V13.0046C20.4167 13.5046 20.0834 13.8379 19.6667 13.9213L18.5834 14.0879C18.4167 14.7546 18.1667 15.4213 17.7501 16.0046L18.4168 16.9212C18.6668 17.2545 18.6667 17.8378 18.3334 18.1712L17.6667 18.8379C17.3334 19.1713 16.8334 19.1713 16.4167 18.9213L15.5001 18.2546C14.9167 18.5879 14.2501 18.9213 13.5834 19.0879L13.4167 20.1713C13.3334 20.5879 12.9167 20.9213 12.5001 20.9213H11.5834C11.0834 20.9213 10.7501 20.5879 10.6667 20.1713L10.5001 19.0879C9.83342 18.9213 9.16675 18.6713 8.58342 18.2546L7.66675 18.9213C7.33342 19.1713 6.75008 19.1713 6.41675 18.8379L5.75008 18.1712C5.41675 17.8378 5.41675 17.3378 5.66675 16.9212L6.33341 16.0046C6.00008 15.4213 5.66675 14.7546 5.50008 14.0879L4.41675 13.9213C4.00008 13.8379 3.66675 13.4213 3.66675 13.0046V12.0879C3.66675 11.5879 4.00008 11.2546 4.41675 11.1713L5.50008 11.0046C5.66675 10.3379 5.91675 9.67128 6.33341 9.08795L5.66675 8.17121C5.41675 7.83787 5.41675 7.25454 5.75008 6.92121L6.41675 6.2546C6.75008 5.92126 7.25008 5.92128 7.66675 6.17128L8.58342 6.83789C9.16675 6.50456 9.83342 6.17122 10.5001 6.00456L10.6667 4.92128C10.7501 4.50461 11.1667 4.17126 11.5834 4.17126H12.5001C13.0001 4.17126 13.3334 4.50461 13.4167 4.92128L13.5834 6.00456C14.2501 6.17122 14.9167 6.42122 15.5001 6.83789L16.4167 6.17128C16.7501 5.92128 17.3334 5.92126 17.6667 6.2546L18.3334 6.92121C18.6667 7.25454 18.6668 7.75454 18.4168 8.17121L17.7501 9.08795C18.0834 9.67128 18.4167 10.3379 18.5834 11.0046L19.6667 11.1713C20.0834 11.2546 20.4167 11.6713 20.4167 12.0879ZM12.0834 9.67125C10.5001 9.67125 9.16675 11.0046 9.16675 12.5879C9.16675 14.1713 10.5001 15.5046 12.0834 15.5046C13.6667 15.5046 15.0001 14.1713 15.0001 12.5879C15.0001 11.0046 13.6667 9.67125 12.0834 9.67125Z" fill="white"/>
<path d="M16.2501 12.5879C16.2501 14.9213 14.4167 16.7546 12.0834 16.7546C9.75008 16.7546 7.91675 14.9213 7.91675 12.5879C7.91675 10.2546 9.75008 8.42126 12.0834 8.42126C14.4167 8.42126 16.2501 10.2546 16.2501 12.5879ZM12.0834 10.9213C11.1667 10.9213 10.4167 11.6713 10.4167 12.5879C10.4167 13.5046 11.1667 14.2546 12.0834 14.2546C13.0001 14.2546 13.7501 13.5046 13.7501 12.5879C13.7501 11.6713 13.0001 10.9213 12.0834 10.9213Z" fill="white"/>
</svg>
