<svg width="12" height="12" viewBox="0 0 12 12" fill="none" xmlns="http://www.w3.org/2000/svg">
<path d="M6.38622 0.764222C6.25801 0.754766 6.12919 0.75 6 0.75V0C6.14763 0 6.29486 0.00544649 6.44139 0.0162541L6.38622 0.764222ZM7.88945 1.10179C7.64891 1.009 7.40184 0.934053 7.15028 0.877562L7.31461 0.145786C7.60211 0.210347 7.88446 0.295999 8.15937 0.402041L7.88945 1.10179ZM8.91675 1.63478C8.80933 1.56301 8.69957 1.49541 8.58772 1.43204L8.95739 0.779476C9.08523 0.851898 9.21067 0.929162 9.33342 1.01118C9.45618 1.0932 9.57556 1.17952 9.69139 1.26992L9.22997 1.86118C9.12862 1.78209 9.02416 1.70656 8.91675 1.63478ZM10.2923 2.97701C10.1439 2.76622 9.98008 2.56664 9.8023 2.37991L10.3455 1.86276C10.5487 2.07616 10.7358 2.30425 10.9055 2.54515L10.2923 2.97701ZM10.8504 3.99091C10.8009 3.87156 10.7472 3.75437 10.6894 3.63954L11.3594 3.30233C11.4254 3.43357 11.4868 3.5675 11.5433 3.7039C11.5998 3.84029 11.6511 3.97839 11.6972 4.11791L10.985 4.35317C10.9447 4.2311 10.8998 4.11026 10.8504 3.99091ZM11.2484 5.87116C11.2421 5.61342 11.2168 5.35648 11.1727 5.10245L11.9117 4.97423C11.962 5.26455 11.991 5.55819 11.9982 5.85275L11.2484 5.87116ZM11.1491 7.02422C11.1743 6.89752 11.1948 6.77025 11.2105 6.64265L11.9549 6.73447C11.9369 6.88029 11.9135 7.02575 11.8847 7.17054C11.8559 7.31534 11.8218 7.45867 11.7827 7.60028L11.0598 7.40025C11.0941 7.27634 11.1239 7.15093 11.1491 7.02422ZM10.4355 8.80874C10.5734 8.59092 10.6951 8.36322 10.7996 8.12752L11.4853 8.43145C11.3659 8.70082 11.2268 8.96105 11.0691 9.20998L10.4355 8.80874ZM9.71231 9.71231C9.80366 9.62096 9.89138 9.5265 9.97535 9.42916L10.5433 9.91904C10.4473 10.0303 10.347 10.1382 10.2426 10.2426L9.71231 9.71231Z" fill="#918F92"/>
<path d="M6 0.75C5.13663 0.75 4.28659 0.962925 3.52517 1.36991C2.76375 1.7769 2.11445 2.36539 1.63479 3.08326C1.15512 3.80112 0.859907 4.6262 0.775282 5.48541C0.690657 6.34462 0.819238 7.21144 1.14963 8.00909C1.48003 8.80674 2.00204 9.51059 2.66944 10.0583C3.33683 10.606 4.129 10.9807 4.97578 11.1491C5.82256 11.3176 6.6978 11.2746 7.524 11.0239C8.35019 10.7733 9.10182 10.3228 9.71231 9.71231L10.2426 10.2426C9.54494 10.9403 8.68593 11.4552 7.74171 11.7416C6.79749 12.0281 5.79721 12.0772 4.82946 11.8847C3.86171 11.6922 2.95638 11.264 2.19364 10.6381C1.43091 10.0121 0.83432 9.2077 0.456724 8.2961C0.0791283 7.3845 -0.067821 6.39385 0.0288932 5.4119C0.125607 4.42994 0.462999 3.48699 1.01118 2.66658C1.55937 1.84616 2.30142 1.1736 3.17162 0.708472C4.04182 0.243342 5.0133 0 6 0V0.75Z" fill="#918F92"/>
<path d="M5.625 2.25C5.83211 2.25 6 2.41789 6 2.625V6.53238L8.43605 7.92441C8.61587 8.02716 8.67835 8.25623 8.57559 8.43605C8.47284 8.61587 8.24377 8.67835 8.06395 8.57559L5.43895 7.07559C5.32211 7.00883 5.25 6.88457 5.25 6.75V2.625C5.25 2.41789 5.41789 2.25 5.625 2.25Z" fill="#918F92"/>
</svg>
