<svg width="24" height="25" viewBox="0 0 24 25" fill="none" xmlns="http://www.w3.org/2000/svg">
<path d="M15.3478 10.0046H14.8288C13.9028 10.0046 13.0525 10.5165 12.6193 11.3349L12.1284 12.2622C12.0538 12.4031 12.0894 12.577 12.2133 12.6772L12.5335 12.9366C13.0526 13.3567 13.463 13.8956 13.7304 14.5076L13.8601 14.8047C13.9131 14.9261 14.033 15.0046 14.1656 15.0046H17.5623C18.4414 15.0046 19.0048 14.0691 18.5934 13.2921L17.5572 11.3349C17.1239 10.5165 16.2738 10.0046 15.3478 10.0046Z" fill="white"/>
<path opacity="0.3" d="M17.0001 7.50468C17.0001 6.5842 16.2539 5.83801 15.3334 5.83801C14.4129 5.83801 13.6667 6.5842 13.6667 7.50468C13.6667 8.42515 14.4129 9.17135 15.3334 9.17135C16.2539 9.17135 17.0001 8.42515 17.0001 7.50468Z" fill="white"/>
<path d="M5.87903 14.8846C6.50323 13.44 7.92633 12.5046 9.49998 12.5046C11.0736 12.5046 12.4967 13.44 13.1209 14.8846L14.3275 17.6769C14.803 18.7772 13.9962 20.0046 12.7976 20.0046H6.20242C5.00376 20.0046 4.19702 18.7772 4.67247 17.6769L5.87903 14.8846Z" fill="white"/>
<path opacity="0.3" d="M12 9.17126C12 7.79055 10.8807 6.67126 9.5 6.67126C8.11929 6.67126 7 7.79055 7 9.17126C7 10.552 8.11929 11.6713 9.5 11.6713C10.8807 11.6713 12 10.552 12 9.17126Z" fill="white"/>
</svg>
