<svg width="32" height="32" viewBox="0 0 32 32" fill="none" xmlns="http://www.w3.org/2000/svg">
<path d="M28.0001 9.33333H4.00008C3.20008 9.33333 2.66675 8.8 2.66675 8V5.33333C2.66675 4.53333 3.20008 4 4.00008 4H28.0001C28.8001 4 29.3334 4.53333 29.3334 5.33333V8C29.3334 8.8 28.8001 9.33333 28.0001 9.33333Z" fill="#00C8FF"/>
<path opacity="0.3" d="M28.0001 18.6673H4.00008C3.20008 18.6673 2.66675 18.134 2.66675 17.334V14.6673C2.66675 13.8673 3.20008 13.334 4.00008 13.334H28.0001C28.8001 13.334 29.3334 13.8673 29.3334 14.6673V17.334C29.3334 18.134 28.8001 18.6673 28.0001 18.6673ZM29.3334 26.6673V24.0007C29.3334 23.2007 28.8001 22.6673 28.0001 22.6673H4.00008C3.20008 22.6673 2.66675 23.2007 2.66675 24.0007V26.6673C2.66675 27.4673 3.20008 28.0007 4.00008 28.0007H28.0001C28.8001 28.0007 29.3334 27.4673 29.3334 26.6673Z" fill="#00C8FF"/>
</svg>
