<svg width="32" height="32" viewBox="0 0 32 32" fill="none" xmlns="http://www.w3.org/2000/svg">
<g id="abs016">
<path id="Vector" opacity="0.3" d="M15.8 29.3015L13.4 28.2348C12.7333 27.9681 12.4667 27.1681 12.7333 26.5015L13.2667 25.3015C14.4667 22.5015 14.4667 19.8348 13.2667 17.0348C11.4 12.9015 11.4 8.7682 13.2667 4.63487L13.8 3.43487C14.0667 2.7682 14.8667 2.50154 15.5333 2.7682L17.9333 3.83487C18.6 4.10154 18.8667 4.90154 18.6 5.5682L18.0667 6.7682C16.8667 9.5682 16.8667 12.2349 18.0667 15.0348C19.9333 19.1681 19.9333 23.3015 18.0667 27.4348L17.5333 28.6348C17.2667 29.3015 16.4667 29.5682 15.8 29.3015ZM26.7333 28.6348L27.2667 27.4348C29.1333 23.3015 29.1333 19.1681 27.2667 15.0348C26.0667 12.2349 26.0667 9.5682 27.2667 6.7682L27.8 5.5682C28.0667 4.90154 27.8 4.10154 27.1333 3.83487L24.7333 2.7682C24.0667 2.50154 23.2667 2.7682 23 3.43487L22.4667 4.63487C20.6 8.7682 20.6 12.9015 22.4667 17.0348C23.6667 19.8348 23.6667 22.5015 22.4667 25.3015L21.9333 26.5015C21.6667 27.1681 21.9333 27.9681 22.6 28.2348L25 29.3015C25.6667 29.5682 26.4667 29.3015 26.7333 28.6348Z" fill="#00C8FF"/>
<path id="Vector_2" d="M6.59999 29.3015L4.19997 28.2348C3.53331 27.9681 3.26664 27.1681 3.53331 26.5015L4.06663 25.3015C5.26663 22.5015 5.26663 19.8348 4.06663 17.0348C2.19996 12.9015 2.19996 8.7682 4.06663 4.63487L4.59999 3.43487C4.86665 2.7682 5.66664 2.50154 6.33331 2.7682L8.73329 3.83487C9.39996 4.10154 9.66663 4.90154 9.39996 5.5682L8.86664 6.7682C7.66664 9.5682 7.66664 12.2349 8.86664 15.0348C10.7333 19.1681 10.7333 23.3015 8.86664 27.4348L8.33331 28.6348C8.06664 29.3015 7.26665 29.5682 6.59999 29.3015Z" fill="#00C8FF"/>
</g>
</svg>
