<svg width="32" height="32" viewBox="0 0 32 32" fill="none" xmlns="http://www.w3.org/2000/svg">
<g id="cod001">
<path id="Vector" opacity="0.3" d="M29.4667 15.3327V16.7993C29.4667 17.5993 28.9334 18.1327 28.2668 18.266L26.5334 18.5327C26.2667 19.5993 25.8667 20.666 25.2001 21.5993L26.2668 23.0659C26.6667 23.5992 26.6667 24.5325 26.1334 25.0659L25.0667 26.1327C24.5334 26.666 23.7334 26.666 23.0667 26.266L21.6001 25.1993C20.6667 25.7327 19.6001 26.266 18.5334 26.5327L18.2667 28.266C18.1334 28.9327 17.4667 29.466 16.8001 29.466H15.3334C14.5334 29.466 14.0001 28.9327 13.8667 28.266L13.6001 26.5327C12.5334 26.266 11.4667 25.866 10.5334 25.1993L9.06675 26.266C8.53342 26.666 7.60008 26.666 7.06675 26.1327L6.00008 25.0659C5.46675 24.5325 5.46675 23.7325 5.86675 23.0659L6.93341 21.5993C6.40008 20.666 5.86675 19.5993 5.60008 18.5327L3.86675 18.266C3.20008 18.1327 2.66675 17.466 2.66675 16.7993V15.3327C2.66675 14.5327 3.20008 13.9993 3.86675 13.866L5.60008 13.5993C5.86675 12.5326 6.26675 11.466 6.93341 10.5327L5.86675 9.06592C5.46675 8.53259 5.46675 7.59926 6.00008 7.06592L7.06675 5.99935C7.60008 5.46602 8.40008 5.46604 9.06675 5.86604L10.5334 6.93262C11.4667 6.39928 12.5334 5.86595 13.6001 5.59928L13.8667 3.86604C14.0001 3.19938 14.6667 2.66602 15.3334 2.66602H16.8001C17.6001 2.66602 18.1334 3.19938 18.2667 3.86604L18.5334 5.59928C19.6001 5.86595 20.6667 6.26595 21.6001 6.93262L23.0667 5.86604C23.6001 5.46604 24.5334 5.46602 25.0667 5.99935L26.1334 7.06592C26.6667 7.59926 26.6667 8.39926 26.2668 9.06592L25.2001 10.5327C25.7334 11.466 26.2667 12.5326 26.5334 13.5993L28.2668 13.866C28.9334 13.9993 29.4667 14.666 29.4667 15.3327ZM16.1334 11.466C13.6001 11.466 11.4667 13.5993 11.4667 16.1327C11.4667 18.666 13.6001 20.7994 16.1334 20.7994C18.6667 20.7994 20.8001 18.666 20.8001 16.1327C20.8001 13.5993 18.6667 11.466 16.1334 11.466Z" fill="#00C8FF"/>
<path id="Vector_2" d="M22.8001 16.1335C22.8001 19.8668 19.8668 22.8002 16.1335 22.8002C12.4001 22.8002 9.4668 19.8668 9.4668 16.1335C9.4668 12.4001 12.4001 9.4668 16.1335 9.4668C19.8668 9.4668 22.8001 12.4001 22.8001 16.1335ZM16.1335 13.4668C14.6668 13.4668 13.4668 14.6668 13.4668 16.1335C13.4668 17.6002 14.6668 18.8002 16.1335 18.8002C17.6001 18.8002 18.8001 17.6002 18.8001 16.1335C18.8001 14.6668 17.6001 13.4668 16.1335 13.4668Z" fill="#00C8FF"/>
</g>
</svg>
