<svg width="32" height="32" viewBox="0 0 32 32" fill="none" xmlns="http://www.w3.org/2000/svg">
<g id="com014">
<path id="Vector" d="M21.3564 12H20.526C19.0444 12 17.684 12.819 16.9908 14.1284L16.2053 15.6121C16.086 15.8375 16.1429 16.1157 16.3412 16.2761L16.8536 16.6911C17.6841 17.3633 18.3408 18.2255 18.7685 19.2047L18.9761 19.6801C19.0609 19.8744 19.2528 20 19.4649 20H24.8996C26.3063 20 27.2076 18.5032 26.5493 17.26L24.8915 14.1284C24.1983 12.819 22.838 12 21.3564 12Z" fill="#00C8FF"/>
<path id="Vector_2" opacity="0.3" d="M24.0001 8.00065C24.0001 6.52789 22.8062 5.33398 21.3334 5.33398C19.8607 5.33398 18.6667 6.52789 18.6667 8.00065C18.6667 9.47341 19.8607 10.6673 21.3334 10.6673C22.8062 10.6673 24.0001 9.47341 24.0001 8.00065Z" fill="#00C8FF"/>
<path id="Vector_3" d="M6.2066 19.8079C7.20531 17.4965 9.48227 16 12.0001 16C14.518 16 16.7949 17.4965 17.7936 19.8079L19.7241 24.2756C20.4849 26.0361 19.1941 28 17.2763 28H6.72401C4.80616 28 3.51537 26.0361 4.27609 24.2756L6.2066 19.8079Z" fill="#00C8FF"/>
<path id="Vector_4" opacity="0.3" d="M16 10.666C16 8.45688 14.2091 6.66602 12 6.66602C9.79086 6.66602 8 8.45688 8 10.666C8 12.8752 9.79086 14.666 12 14.666C14.2091 14.666 16 12.8752 16 10.666Z" fill="#00C8FF"/>
</g>
</svg>
