<svg width="32" height="32" viewBox="0 0 32 32" fill="none" xmlns="http://www.w3.org/2000/svg">
<g id="fin003">
<path id="Vector" opacity="0.3" d="M26.6667 24H5.33333C4.53333 24 4 23.4667 4 22.6667V9.33333C4 8.53333 4.53333 8 5.33333 8H26.6667C27.4667 8 28 8.53333 28 9.33333V22.6667C28 23.4667 27.4667 24 26.6667 24ZM16 10.6667C13.7333 10.6667 12 13.0667 12 16C12 18.9333 13.7333 21.3333 16 21.3333C18.2667 21.3333 20 18.9333 20 16C20 13.0667 18.2667 10.6667 16 10.6667Z" fill="#00C8FF"/>
<path id="Vector_2" d="M24 8H26.6667C27.4667 8 28 8.53333 28 9.33333V12C25.7333 12 24 10.2667 24 8ZM8 8H5.33333C4.53333 8 4 8.53333 4 9.33333V12C6.26667 12 8 10.2667 8 8ZM28 22.6667V20C25.7333 20 24 21.7333 24 24H26.6667C27.4667 24 28 23.4667 28 22.6667ZM4 20V22.6667C4 23.4667 4.53333 24 5.33333 24H8C8 21.7333 6.26667 20 4 20Z" fill="#00C8FF"/>
</g>
</svg>
