<svg width="32" height="32" viewBox="0 0 32 32" fill="none" xmlns="http://www.w3.org/2000/svg">
<g id="gen019">
<path id="Vector" d="M23.3334 14.666H8.66675C5.33341 14.666 2.66675 11.9993 2.66675 8.66602C2.66675 5.33268 5.33341 2.66602 8.66675 2.66602H23.3334C26.6667 2.66602 29.3334 5.33268 29.3334 8.66602C29.3334 11.9993 26.6667 14.666 23.3334 14.666ZM20.0001 8.66602C20.0001 10.5327 21.4667 11.9993 23.3334 11.9993C25.2001 11.9993 26.6667 10.5327 26.6667 8.66602C26.6667 6.79935 25.2001 5.33268 23.3334 5.33268C21.4667 5.33268 20.0001 6.79935 20.0001 8.66602Z" fill="#00C8FF"/>
<path id="Vector_2" opacity="0.3" d="M23.3334 29.334H8.66675C5.33341 29.334 2.66675 26.6673 2.66675 23.334C2.66675 20.0007 5.33341 17.334 8.66675 17.334H23.3334C26.6667 17.334 29.3334 20.0007 29.3334 23.334C29.3334 26.6673 26.6667 29.334 23.3334 29.334ZM5.33341 23.334C5.33341 25.2007 6.80008 26.6673 8.66675 26.6673C10.5334 26.6673 12.0001 25.2007 12.0001 23.334C12.0001 21.4673 10.5334 20.0007 8.66675 20.0007C6.80008 20.0007 5.33341 21.4673 5.33341 23.334Z" fill="#00C8FF"/>
</g>
</svg>
