<svg width="32" height="32" viewBox="0 0 32 32" fill="none" xmlns="http://www.w3.org/2000/svg">
<g id="gen007">
<path id="Vector" opacity="0.3" d="M16 29.334C18.2092 29.334 20 27.5432 20 25.334C20 23.1248 18.2092 21.334 16 21.334C13.7908 21.334 12 23.1248 12 25.334C12 27.5432 13.7908 29.334 16 29.334Z" fill="#00C8FF"/>
<path id="Vector_2" d="M25.3334 19.9993V23.9993C25.3334 24.7993 24.8001 25.3327 24.0001 25.3327H8.00008C7.20008 25.3327 6.66675 24.7993 6.66675 23.9993V19.9993C8.13341 19.9993 9.33341 18.7993 9.33341 17.3327V13.3327C9.33341 10.1327 11.6001 7.46602 14.6667 6.79935V3.99935C14.6667 3.19935 15.2001 2.66602 16.0001 2.66602C16.8001 2.66602 17.3334 3.19935 17.3334 3.99935V6.79935C20.4001 7.46602 22.6667 10.1327 22.6667 13.3327V17.3327C22.6667 18.7993 23.8667 19.9993 25.3334 19.9993ZM14.6667 13.3327C14.6667 12.5327 15.2001 11.9993 16.0001 11.9993C16.8001 11.9993 17.3334 11.466 17.3334 10.666C17.3334 9.86602 16.8001 9.33268 16.0001 9.33268C13.7334 9.33268 12.0001 11.066 12.0001 13.3327C12.0001 14.1327 12.5334 14.666 13.3334 14.666C14.1334 14.666 14.6667 14.1327 14.6667 13.3327Z" fill="#00C8FF"/>
</g>
</svg>
