<svg width="32" height="32" viewBox="0 0 32 32" fill="none" xmlns="http://www.w3.org/2000/svg">
<g id="gen005">
<path id="Vector" opacity="0.3" d="M25.3333 29.3327H6.66659C5.86659 29.3327 5.33325 28.7993 5.33325 27.9993V3.99935C5.33325 3.19935 5.86659 2.66602 6.66659 2.66602H18.6666L26.6666 10.666V27.9993C26.6666 28.7993 26.1333 29.3327 25.3333 29.3327ZM16.6666 23.9993C16.6666 23.1994 16.7999 23.3327 15.9999 23.3327H11.3333C10.5333 23.3327 10.6666 23.1994 10.6666 23.9993C10.6666 24.7993 10.5333 24.666 11.3333 24.666L15.9999 23.9993C16.7999 23.9993 16.6666 24.7993 16.6666 23.9993ZM21.9999 17.3327C21.9999 16.5327 22.1333 16.666 21.3333 16.666H11.3333C10.5333 16.666 10.6666 16.5327 10.6666 17.3327C10.6666 18.1327 10.5333 17.9993 11.3333 17.9993H20.6666C21.4666 17.9993 21.9999 18.1327 21.9999 17.3327ZM16.6666 10.666C16.6666 9.86602 16.7999 9.99935 15.9999 9.99935H10.6666C9.86658 9.99935 9.99992 9.86602 9.99992 10.666C9.99992 11.466 9.86658 11.3327 10.6666 11.3327H15.9999C16.7999 11.3327 16.6666 11.466 16.6666 10.666Z" fill="#00C8FF"/>
<path id="Vector_2" d="M15.9999 22.666H10.6666C9.93021 22.666 9.33325 23.263 9.33325 23.9993C9.33325 24.7357 9.93021 25.3327 10.6666 25.3327H15.9999C16.7363 25.3327 17.3333 24.7357 17.3333 23.9993C17.3333 23.263 16.7363 22.666 15.9999 22.666Z" fill="#00C8FF"/>
<path id="Vector_3" d="M21.3333 16H10.6666C9.93021 16 9.33325 16.597 9.33325 17.3333C9.33325 18.0697 9.93021 18.6667 10.6666 18.6667H21.3333C22.0696 18.6667 22.6666 18.0697 22.6666 17.3333C22.6666 16.597 22.0696 16 21.3333 16Z" fill="#00C8FF"/>
<path id="Vector_4" d="M15.9999 9.33398H10.6666C9.93021 9.33398 9.33325 9.93094 9.33325 10.6673C9.33325 11.4037 9.93021 12.0007 10.6666 12.0007H15.9999C16.7363 12.0007 17.3333 11.4037 17.3333 10.6673C17.3333 9.93094 16.7363 9.33398 15.9999 9.33398Z" fill="#00C8FF"/>
<path id="Vector_5" d="M20.0001 10.666H26.6667L18.6667 2.66602V9.33268C18.6667 10.1327 19.2001 10.666 20.0001 10.666Z" fill="#00C8FF"/>
</g>
</svg>
