<svg width="32" height="32" viewBox="0 0 32 32" fill="none" xmlns="http://www.w3.org/2000/svg">
<g id="gra001">
<path id="Vector" opacity="0.3" d="M18.6666 3.99935V27.9993H13.3333V3.99935C13.3333 3.19935 13.8666 2.66602 14.6666 2.66602H17.3333C18.1333 2.66602 18.6666 3.19935 18.6666 3.99935ZM9.33325 18.666H6.66659C5.86659 18.666 5.33325 19.1994 5.33325 19.9993V27.9993H10.6666V19.9993C10.6666 19.1994 10.1333 18.666 9.33325 18.666Z" fill="#00C8FF"/>
<path id="Vector_2" d="M28.0001 26.6673H26.6667V10.6673C26.6667 9.86732 26.1334 9.33398 25.3334 9.33398H22.6667C21.8667 9.33398 21.3334 9.86732 21.3334 10.6673V26.6673H4.00008C3.20008 26.6673 2.66675 27.2007 2.66675 28.0007C2.66675 28.8007 3.20008 29.334 4.00008 29.334H28.0001C28.8001 29.334 29.3334 28.8007 29.3334 28.0007C29.3334 27.2007 28.8001 26.6673 28.0001 26.6673Z" fill="#00C8FF"/>
</g>
</svg>
