<svg width="32" height="32" viewBox="0 0 32 32" fill="none" xmlns="http://www.w3.org/2000/svg">
<path d="M17.3334 7.88624C21.0667 8.5529 24 11.7529 24 15.7529C24 16.6863 23.8667 17.6196 23.4667 18.5529L26.8 20.4196C27.4667 20.8196 28.5334 20.5529 28.8 19.7529C29.2 18.5529 29.4667 17.2196 29.4667 15.7529C29.4667 9.35293 25.0667 4.15296 19.0667 2.68629C18.2667 2.55296 17.4667 3.08629 17.4667 4.01962V7.88624H17.3334Z" fill="#00C8FF"/>
<path opacity="0.3" d="M25.4666 22.687C26.2666 23.087 26.4 24.1537 25.7333 24.687C23.3333 27.3537 19.8666 28.9537 16 28.9537C12.1333 28.9537 8.66664 27.3537 6.26664 24.687C5.73331 24.0203 5.86661 23.087 6.53328 22.687L9.86661 20.8203C11.3333 22.5537 13.6 23.7537 16 23.7537C18.4 23.7537 20.6666 22.687 22.1333 20.8203L25.4666 22.687ZM8.53328 18.5535C8.26661 17.6202 7.99996 16.687 7.99996 15.7537C7.99996 11.7536 10.9333 8.55361 14.6666 7.88694V4.02033C14.6666 3.22033 13.8666 2.55366 13.0666 2.687C7.06661 4.02033 2.66663 9.35364 2.66663 15.7537C2.66663 17.087 2.93329 18.4203 3.33329 19.7537C3.59996 20.5537 4.53329 20.9537 5.33329 20.4203L8.53328 18.5535Z" fill="#00C8FF"/>
</svg>
