<svg width="160" height="46" viewBox="0 0 160 46" fill="none" xmlns="http://www.w3.org/2000/svg">
<g clip-path="url(#clip0_567_72244)">
<path fill-rule="evenodd" clip-rule="evenodd" d="M23.265 14.3577C23.924 14.461 24.0573 14.325 24.1446 13.6891C24.2876 12.7191 24.6283 11.0835 25.4247 9.407C26.2869 7.5991 27.6599 5.6126 29.5803 4.28247C31.1979 3.17667 33.849 1.95191 35.9014 1.50765C37.5804 1.13918 39.1535 1.06885 40.5032 1.19627C43.2771 1.45056 44.8114 2.2569 45.5816 3.30053C45.8672 3.69041 46.0235 4.17138 46.0299 4.48276C46.0519 5.00186 45.8297 5.67927 45.0984 6.34428C44.3868 6.98489 42.8688 7.79536 40.7988 8.50507C38.6501 9.23451 35.7137 10.0048 32.7868 10.6915C30.336 11.2671 28.9415 11.757 27.7772 12.1595C25.8404 12.8289 25.2568 14.7944 26.4636 15.3946C28.2078 16.262 29.2988 17.169 30.2285 17.94C31.6231 19.1064 33.2427 20.4788 35.2534 22.9539C37.0751 25.2236 40.0553 29.5556 41.1279 33.7605C42.3151 38.3768 41.5732 42.7547 39.0123 43.9773C36.5015 45.1778 33.1555 43.4454 30.8067 40.9612C28.572 38.6035 27.0124 35.8264 25.5458 31.5429C24.274 27.861 23.7584 22.522 23.7606 19.729C23.7606 18.7986 23.7458 18.6 23.7827 17.7598C23.8679 17.0277 21.9325 16.422 19.8522 17.7871C17.485 19.3406 15.1658 22.1559 13.7966 23.791C13.2009 24.5046 12.3936 25.5534 11.538 26.6533C10.4102 28.0961 9.16519 29.5986 8.03024 30.4387C6.3222 31.7085 3.57799 32.2335 1.65581 30.8351C0.587325 30.056 0.0185603 28.5852 0.000700113 27.0898C-0.0152268 26.037 0.240708 25.0846 0.756076 24.1451C1.39996 22.9917 2.46007 21.7539 4.14067 20.3364C5.87854 18.8797 8.65277 17.2321 11.4329 16.093C15.6735 14.352 20.2393 13.8042 23.265 14.3577" fill="white"/>
<path d="M53.5854 27.7948V26.39C53.3237 26.8452 52.9179 27.229 52.3681 27.5411C51.8184 27.8403 51.1508 27.9899 50.3655 27.9899C49.2398 27.9899 48.3432 27.6647 47.6756 27.0143C47.0081 26.3509 46.6743 25.4079 46.6743 24.1852V20.7706C46.6743 19.5349 47.0081 18.5918 47.6756 17.9414C48.3563 17.2911 49.2725 16.9659 50.4244 16.9659C51.1836 16.9659 51.838 17.122 52.3878 17.4341C52.9375 17.7333 53.3433 18.104 53.6051 18.5463V17.2195C53.6051 17.1415 53.7752 17.1025 54.1156 17.1025C54.469 17.1025 54.6457 17.1415 54.6457 17.2195V27.385C54.6457 28.8419 54.2988 29.9411 53.6051 30.6825C52.9244 31.437 51.9362 31.8142 50.6404 31.8142C49.567 31.8142 48.5003 31.528 47.44 30.9557C47.3877 30.8906 47.3811 30.7801 47.4204 30.624C47.4728 30.4809 47.5513 30.3313 47.656 30.1752C47.7607 30.0321 47.8458 29.9801 47.9113 30.0191C48.8929 30.5784 49.8354 30.8581 50.7385 30.8581C52.6365 30.8581 53.5854 29.837 53.5854 27.7948ZM50.5815 17.9414C49.7176 17.9414 49.0238 18.1821 48.5003 18.6634C47.9898 19.1447 47.7345 19.9056 47.7345 20.9462V24.0095C47.7345 25.0762 47.9832 25.8501 48.4806 26.3314C48.9911 26.8127 49.6783 27.0534 50.5422 27.0534C51.4192 27.0534 52.1456 26.7997 52.7216 26.2924C53.2975 25.7721 53.5854 25.0827 53.5854 24.2242V20.5755C53.5854 19.8601 53.2975 19.2422 52.7216 18.7219C52.1456 18.2016 51.4323 17.9414 50.5815 17.9414Z" fill="white"/>
<path d="M61.1963 18.2341H60.5681C60.1492 18.2341 59.7369 18.4227 59.3311 18.8C58.9384 19.1772 58.4607 19.795 57.8979 20.6536V27.7167C57.8979 27.7948 57.7211 27.8338 57.3677 27.8338C57.0274 27.8338 56.8573 27.7948 56.8573 27.7167V17.2195C56.8573 17.1415 57.0274 17.1025 57.3677 17.1025C57.695 17.1025 57.8586 17.1415 57.8586 17.2195V19.5804C58.4738 18.6439 58.9843 18.0065 59.39 17.6683C59.7958 17.3171 60.2801 17.1415 60.8429 17.1415H61.2356C61.3141 17.1415 61.3534 17.3301 61.3534 17.7073C61.3534 18.0585 61.3011 18.2341 61.1963 18.2341Z" fill="white"/>
<path d="M68.8068 27.7167C68.8068 27.7948 68.6301 27.8338 68.2767 27.8338C67.9363 27.8338 67.7662 27.7948 67.7662 27.7167V26.5656C66.719 27.5151 65.5868 27.9899 64.3695 27.9899C63.3224 27.9899 62.4978 27.7102 61.8957 27.1509C61.3066 26.5916 61.0121 25.8241 61.0121 24.8485V24.3412C61.0121 21.8438 63.2569 20.9007 67.7466 21.5121V20.6536C67.7466 19.691 67.5437 19.0016 67.1379 18.5853C66.7452 18.1561 66.0908 17.9414 65.1745 17.9414C64.0488 17.9414 63.0868 18.1561 62.2883 18.5853C62.2098 18.6244 62.1247 18.5723 62.0331 18.4292C61.9415 18.2731 61.8826 18.1171 61.8564 17.961C61.8433 17.8049 61.8695 17.6943 61.9349 17.6293C62.8773 17.187 63.9703 16.9659 65.2138 16.9659C67.6091 16.9659 68.8068 18.1691 68.8068 20.5755V27.7167ZM67.7466 25.59V22.3511C65.7832 22.0779 64.3433 22.1104 63.4271 22.4486C62.5239 22.7868 62.0724 23.4242 62.0724 24.3608V24.8485C62.0724 25.551 62.3014 26.0908 62.7595 26.468C63.2308 26.8452 63.8198 27.0338 64.5266 27.0338C65.7308 27.0338 66.8041 26.5526 67.7466 25.59Z" fill="white"/>
<path d="M77.7657 20.4194V27.7167C77.7657 27.7948 77.589 27.8338 77.2356 27.8338C76.8821 27.8338 76.7054 27.7948 76.7054 27.7167V20.3609C76.7054 19.6325 76.5353 19.0666 76.195 18.6634C75.8546 18.2471 75.4227 18.039 74.8991 18.039C74.3756 18.039 73.852 18.2862 73.3284 18.7804C72.8048 19.2747 72.3598 19.8406 71.9933 20.478V27.7167C71.9933 27.7948 71.8166 27.8338 71.4632 27.8338C71.1098 27.8338 70.9331 27.7948 70.9331 27.7167V17.2195C70.9331 17.1415 71.1032 17.1025 71.4436 17.1025C71.797 17.1025 71.9737 17.1415 71.9737 17.2195V19.2487C72.9161 17.7268 73.9763 16.9659 75.1544 16.9659C75.8481 16.9659 76.4044 17.2 76.8232 17.6683C77.2552 18.1236 77.5235 18.6504 77.6282 19.2487C78.623 17.7268 79.6963 16.9659 80.8482 16.9659C81.6597 16.9659 82.3076 17.2325 82.792 17.7658C83.2893 18.2992 83.538 19.0276 83.538 19.9511V27.7167C83.538 27.7948 83.3613 27.8338 83.0079 27.8338C82.6545 27.8338 82.4778 27.7948 82.4778 27.7167V20.3609C82.4778 19.5934 82.3207 19.0146 82.0066 18.6244C81.7055 18.2341 81.2736 18.039 80.7108 18.039C80.1741 18.039 79.644 18.2666 79.1204 18.7219C78.6099 19.1772 78.1583 19.743 77.7657 20.4194Z" fill="white"/>
<path d="M93.1306 22.9949H86.2587V24.0095C86.2587 24.9591 86.514 25.7005 87.0244 26.2339C87.5349 26.7672 88.2876 27.0338 89.2823 27.0338C90.408 27.0338 91.4813 26.7607 92.5023 26.2144C92.5546 26.1883 92.6332 26.2469 92.7379 26.39C92.8426 26.52 92.9146 26.6566 92.9539 26.7997C93.0062 26.9428 93.0062 27.0403 92.9539 27.0924C91.8936 27.6907 90.6829 27.9899 89.3216 27.9899C88.0258 27.9899 87.0113 27.6452 86.2783 26.9558C85.5584 26.2664 85.1985 25.3103 85.1985 24.0876V20.8682C85.1985 19.6975 85.565 18.7544 86.298 18.039C87.0441 17.3236 87.98 16.9659 89.1056 16.9659C90.3229 16.9659 91.2981 17.3366 92.0311 18.078C92.7641 18.8065 93.1306 19.8081 93.1306 21.0828V22.9949ZM92.0703 22.1364V20.9853C92.0703 19.9837 91.7889 19.2162 91.2261 18.6829C90.6633 18.1496 89.9564 17.8829 89.1056 17.8829C88.281 17.8829 87.6004 18.1496 87.0637 18.6829C86.527 19.2032 86.2587 19.9511 86.2587 20.9267V22.1364H92.0703Z" fill="white"/>
<path d="M102.383 22.9949H95.5112V24.0095C95.5112 24.9591 95.7664 25.7005 96.2769 26.2339C96.7874 26.7672 97.54 27.0338 98.5348 27.0338C99.6605 27.0338 100.734 26.7607 101.755 26.2144C101.807 26.1883 101.886 26.2469 101.99 26.39C102.095 26.52 102.167 26.6566 102.206 26.7997C102.259 26.9428 102.259 27.0403 102.206 27.0924C101.146 27.6907 99.9354 27.9899 98.5741 27.9899C97.2782 27.9899 96.2638 27.6452 95.5308 26.9558C94.8109 26.2664 94.451 25.3103 94.451 24.0876V20.8682C94.451 19.6975 94.8175 18.7544 95.5505 18.039C96.2965 17.3236 97.2324 16.9659 98.3581 16.9659C99.5754 16.9659 100.551 17.3366 101.284 18.078C102.017 18.8065 102.383 19.8081 102.383 21.0828V22.9949ZM101.323 22.1364V20.9853C101.323 19.9837 101.041 19.2162 100.479 18.6829C99.9157 18.1496 99.2089 17.8829 98.3581 17.8829C97.5335 17.8829 96.8528 18.1496 96.3162 18.6829C95.7795 19.2032 95.5112 19.9511 95.5112 20.9267V22.1364H101.323Z" fill="white"/>
<path d="M111.752 27.7167C111.752 27.7948 111.575 27.8338 111.222 27.8338C110.868 27.8338 110.692 27.7948 110.692 27.7167V20.556C110.692 18.865 110.011 18.0195 108.65 18.0195C108.022 18.0195 107.406 18.2406 106.804 18.6829C106.215 19.1121 105.705 19.6455 105.273 20.2828V27.7167C105.273 27.7948 105.096 27.8338 104.743 27.8338C104.389 27.8338 104.213 27.7948 104.213 27.7167V17.2195C104.213 17.1415 104.389 17.1025 104.743 17.1025C105.083 17.1025 105.253 17.1415 105.253 17.2195V19.1121C106.274 17.6813 107.511 16.9659 108.964 16.9659C109.815 16.9659 110.489 17.252 110.986 17.8244C111.497 18.3967 111.752 19.1512 111.752 20.0877V27.7167Z" fill="white"/>
<path d="M118.148 27.9899C117.362 27.9899 116.695 27.8403 116.145 27.5411C115.595 27.229 115.19 26.8452 114.928 26.39V31.6191C114.928 31.6971 114.751 31.7361 114.398 31.7361C114.044 31.7361 113.868 31.6971 113.868 31.6191V17.2195C113.868 17.1415 114.044 17.1025 114.398 17.1025C114.738 17.1025 114.908 17.1415 114.908 17.2195V18.7024C115.183 18.2211 115.589 17.8114 116.126 17.4732C116.675 17.135 117.33 16.9659 118.089 16.9659C119.241 16.9659 120.15 17.2911 120.818 17.9414C121.499 18.5918 121.839 19.5349 121.839 20.7706V24.1852C121.839 25.4079 121.505 26.3509 120.838 27.0143C120.17 27.6647 119.274 27.9899 118.148 27.9899ZM117.775 17.9414C116.976 17.9414 116.302 18.2081 115.753 18.7414C115.203 19.2617 114.928 19.8796 114.928 20.595V24.2242C114.928 25.0827 115.216 25.7721 115.792 26.2924C116.368 26.7997 117.094 27.0534 117.971 27.0534C119.843 27.0534 120.779 26.0387 120.779 24.0095V20.9462C120.779 18.943 119.777 17.9414 117.775 17.9414Z" fill="white"/>
<path d="M131.196 27.7167C131.196 27.7948 131.02 27.8338 130.666 27.8338C130.313 27.8338 130.136 27.7948 130.136 27.7167V20.3609C130.136 19.6194 129.94 19.0471 129.547 18.6439C129.168 18.2276 128.683 18.0195 128.094 18.0195C127.728 18.0195 127.361 18.0975 126.995 18.2536C126.628 18.4097 126.314 18.6048 126.052 18.839C125.791 19.0601 125.555 19.2877 125.346 19.5219C125.136 19.743 124.979 19.9251 124.874 20.0682L124.717 20.3023V27.7167C124.717 27.7948 124.541 27.8338 124.187 27.8338C123.834 27.8338 123.657 27.7948 123.657 27.7167V13.2587C123.657 13.1806 123.84 13.1416 124.207 13.1416C124.547 13.1416 124.717 13.1806 124.717 13.2587V19.1121C125.738 17.6813 126.969 16.9659 128.408 16.9659C129.259 16.9659 129.933 17.252 130.431 17.8244C130.941 18.3967 131.196 19.1512 131.196 20.0877V27.7167Z" fill="white"/>
<path d="M136.944 27.9899C135.649 27.9899 134.641 27.6647 133.921 27.0143C133.214 26.3509 132.861 25.4079 132.861 24.1852V20.7706C132.861 19.5479 133.214 18.6113 133.921 17.961C134.641 17.2976 135.649 16.9659 136.944 16.9659C138.253 16.9659 139.268 17.2976 139.988 17.961C140.708 18.6113 141.068 19.5479 141.068 20.7706V24.1852C141.068 25.3949 140.708 26.3314 139.988 26.9948C139.268 27.6582 138.253 27.9899 136.944 27.9899ZM140.007 20.9462C140.007 18.93 138.986 17.9219 136.944 17.9219C135.963 17.9219 135.21 18.1626 134.686 18.6439C134.176 19.1121 133.921 19.8796 133.921 20.9462V24.0095C133.921 26.0387 134.929 27.0534 136.944 27.0534C137.939 27.0534 138.698 26.8192 139.222 26.3509C139.745 25.8696 140.007 25.0892 140.007 24.0095V20.9462Z" fill="white"/>
<path d="M150.43 27.7167C150.43 27.7948 150.253 27.8338 149.9 27.8338C149.546 27.8338 149.37 27.7948 149.37 27.7167V20.556C149.37 18.865 148.689 18.0195 147.328 18.0195C146.7 18.0195 146.084 18.2406 145.482 18.6829C144.893 19.1121 144.383 19.6455 143.951 20.2828V27.7167C143.951 27.7948 143.774 27.8338 143.421 27.8338C143.067 27.8338 142.891 27.7948 142.891 27.7167V17.2195C142.891 17.1415 143.067 17.1025 143.421 17.1025C143.761 17.1025 143.931 17.1415 143.931 17.2195V19.1121C144.952 17.6813 146.189 16.9659 147.642 16.9659C148.493 16.9659 149.167 17.252 149.664 17.8244C150.175 18.3967 150.43 19.1512 150.43 20.0877V27.7167Z" fill="white"/>
<path d="M160.026 22.9949H153.154V24.0095C153.154 24.9591 153.41 25.7005 153.92 26.2339C154.431 26.7672 155.183 27.0338 156.178 27.0338C157.304 27.0338 158.377 26.7607 159.398 26.2144C159.45 26.1883 159.529 26.2469 159.634 26.39C159.738 26.52 159.81 26.6566 159.849 26.7997C159.902 26.9428 159.902 27.0403 159.849 27.0924C158.789 27.6907 157.578 27.9899 156.217 27.9899C154.921 27.9899 153.907 27.6452 153.174 26.9558C152.454 26.2664 152.094 25.3103 152.094 24.0876V20.8682C152.094 19.6975 152.461 18.7544 153.194 18.039C153.94 17.3236 154.876 16.9659 156.001 16.9659C157.219 16.9659 158.194 17.3366 158.927 18.078C159.66 18.8065 160.026 19.8081 160.026 21.0828V22.9949ZM158.966 22.1364V20.9853C158.966 19.9837 158.685 19.2162 158.122 18.6829C157.559 18.1496 156.852 17.8829 156.001 17.8829C155.177 17.8829 154.496 18.1496 153.959 18.6829C153.423 19.2032 153.154 19.9511 153.154 20.9267V22.1364H158.966Z" fill="white"/>
</g>
<defs>
<clipPath id="clip0_567_72244">
<rect width="160" height="45.5046" fill="white"/>
</clipPath>
</defs>
</svg>
