<svg width="320" height="92" viewBox="0 0 320 92" fill="none" xmlns="http://www.w3.org/2000/svg">
<g clip-path="url(#clip0_567_76418)">
<path fill-rule="evenodd" clip-rule="evenodd" d="M46.53 28.7152C47.8479 28.9218 48.1145 28.6499 48.2893 27.378C48.5752 25.438 49.2567 22.1668 50.8494 18.8138C52.5737 15.198 55.3198 11.225 59.1606 8.5647C62.3957 6.35311 67.698 3.90357 71.8029 3.01506C75.1608 2.27812 78.3069 2.13745 81.0064 2.3923C86.5541 2.90088 89.6227 4.51356 91.1631 6.60082C91.7345 7.38059 92.0469 8.34252 92.0598 8.96528C92.1038 10.0035 91.6594 11.3583 90.1968 12.6883C88.7736 13.9695 85.7377 15.5905 81.5976 17.0099C77.3001 18.4688 71.4274 20.0093 65.5735 21.3827C60.6719 22.534 57.883 23.5138 55.5543 24.3187C51.6809 25.6576 50.5135 29.5885 52.9272 30.789C56.4157 32.5237 58.5976 34.3377 60.457 35.8798C63.2462 38.2125 66.4853 40.9573 70.5068 45.9076C74.1503 50.447 80.1106 59.111 82.2559 67.5208C84.6302 76.7534 83.1465 85.5093 78.0247 87.9543C73.003 90.3554 66.311 86.8906 61.6134 81.9222C57.1441 77.2068 54.0248 71.6527 51.0917 63.0856C48.548 55.7217 47.5169 45.0437 47.5211 39.4578C47.5211 37.5969 47.4917 37.1999 47.5653 35.5194C47.7358 34.0551 43.8649 32.8437 39.7044 35.574C34.97 38.6809 30.3315 44.3116 27.5932 47.5817C26.4019 49.009 24.7871 51.1066 23.076 53.3064C20.8203 56.192 18.3304 59.1971 16.0605 60.8772C12.6444 63.4169 7.15597 64.4669 3.31161 61.6699C1.17465 60.1119 0.0371206 57.1701 0.00140023 54.1793C-0.0304535 52.0738 0.481416 50.1689 1.51215 48.2899C2.79993 45.9831 4.92013 43.5077 8.28135 40.6726C11.7571 37.7591 17.3055 34.4639 22.8658 32.1858C31.347 28.7038 40.4787 27.6081 46.53 28.7152Z" fill="#0078CF"/>
<path d="M107.171 55.5891V52.7794C106.647 53.69 105.836 54.4574 104.736 55.0818C103.637 55.6802 102.302 55.9793 100.731 55.9793C98.4796 55.9793 96.6864 55.3289 95.3513 54.0282C94.0162 52.7014 93.3486 50.8153 93.3486 48.3698V41.5408C93.3486 39.0693 94.0162 37.1832 95.3513 35.8824C96.7126 34.5816 98.5451 33.9313 100.849 33.9313C102.367 33.9313 103.676 34.2434 104.776 34.8678C105.875 35.4662 106.687 36.2076 107.21 37.0921V34.4386C107.21 34.2825 107.55 34.2044 108.231 34.2044C108.938 34.2044 109.291 34.2825 109.291 34.4386V54.7696C109.291 57.6833 108.598 59.8816 107.21 61.3645C105.849 62.8734 103.872 63.6279 101.281 63.6279C99.1341 63.6279 97.0005 63.0555 94.8801 61.9109C94.7754 61.7808 94.7623 61.5596 94.8408 61.2475C94.9455 60.9613 95.1026 60.6621 95.312 60.3499C95.5215 60.0638 95.6916 59.9597 95.8225 60.0377C97.7859 61.1564 99.6707 61.7157 101.477 61.7157C105.273 61.7157 107.171 59.6735 107.171 55.5891ZM101.163 35.8824C99.4351 35.8824 98.0477 36.3637 97.0005 37.3263C95.9796 38.2888 95.4691 39.8107 95.4691 41.892V48.0186C95.4691 50.1519 95.9665 51.6998 96.9613 52.6624C97.9822 53.6249 99.3566 54.1062 101.084 54.1062C102.838 54.1062 104.291 53.5989 105.443 52.5843C106.595 51.5437 107.171 50.1649 107.171 48.4479V41.1505C107.171 39.7197 106.595 38.484 105.443 37.4433C104.291 36.4027 102.865 35.8824 101.163 35.8824Z" fill="#0C1026"/>
<path d="M122.393 36.4678H121.136C120.298 36.4678 119.474 36.845 118.662 37.5994C117.877 38.3539 116.921 39.5896 115.796 41.3066V55.433C115.796 55.5891 115.442 55.6672 114.735 55.6672C114.055 55.6672 113.715 55.5891 113.715 55.433V34.4386C113.715 34.2825 114.055 34.2044 114.735 34.2044C115.39 34.2044 115.717 34.2825 115.717 34.4386V39.1604C116.948 37.2872 117.969 36.0125 118.78 35.3361C119.592 34.6337 120.56 34.2825 121.686 34.2825H122.471C122.628 34.2825 122.707 34.6597 122.707 35.4141C122.707 36.1165 122.602 36.4678 122.393 36.4678Z" fill="#0C1026"/>
<path d="M137.614 55.433C137.614 55.5891 137.26 55.6672 136.553 55.6672C135.873 55.6672 135.532 55.5891 135.532 55.433V53.1306C133.438 55.0298 131.174 55.9793 128.739 55.9793C126.645 55.9793 124.996 55.42 123.791 54.3013C122.613 53.1827 122.024 51.6478 122.024 49.6966V48.682C122.024 43.687 126.514 41.8009 135.493 43.0236V41.3066C135.493 39.3815 135.087 38.0027 134.276 37.1702C133.49 36.3117 132.182 35.8824 130.349 35.8824C128.098 35.8824 126.174 36.3117 124.577 37.1702C124.42 37.2482 124.249 37.1442 124.066 36.858C123.883 36.5458 123.765 36.2336 123.713 35.9214C123.687 35.6092 123.739 35.3881 123.87 35.258C125.755 34.3735 127.941 33.9313 130.428 33.9313C135.218 33.9313 137.614 36.3377 137.614 41.1505V55.433ZM135.493 51.1795V44.7016C131.566 44.1553 128.687 44.2204 126.854 44.8968C125.048 45.5732 124.145 46.8479 124.145 48.721V49.6966C124.145 51.1014 124.603 52.1811 125.519 52.9355C126.462 53.69 127.64 54.0672 129.053 54.0672C131.462 54.0672 133.608 53.1046 135.493 51.1795Z" fill="#0C1026"/>
<path d="M155.531 40.8384V55.433C155.531 55.5891 155.178 55.6672 154.471 55.6672C153.764 55.6672 153.411 55.5891 153.411 55.433V40.7213C153.411 39.2644 153.071 38.1327 152.39 37.3263C151.709 36.4938 150.845 36.0775 149.798 36.0775C148.751 36.0775 147.704 36.5718 146.657 37.5604C145.61 38.549 144.72 39.6807 143.987 40.9554V55.433C143.987 55.5891 143.633 55.6672 142.926 55.6672C142.22 55.6672 141.866 55.5891 141.866 55.433V34.4386C141.866 34.2825 142.206 34.2044 142.887 34.2044C143.594 34.2044 143.947 34.2825 143.947 34.4386V38.497C145.832 35.4532 147.953 33.9313 150.309 33.9313C151.696 33.9313 152.809 34.3995 153.646 35.3361C154.51 36.2466 155.047 37.3003 155.256 38.497C157.246 35.4532 159.393 33.9313 161.696 33.9313C163.319 33.9313 164.615 34.4646 165.584 35.5312C166.579 36.5978 167.076 38.0547 167.076 39.9018V55.433C167.076 55.5891 166.723 55.6672 166.016 55.6672C165.309 55.6672 164.956 55.5891 164.956 55.433V40.7213C164.956 39.1864 164.641 38.0287 164.013 37.2482C163.411 36.4678 162.547 36.0775 161.422 36.0775C160.348 36.0775 159.288 36.5328 158.241 37.4433C157.22 38.3539 156.317 39.4855 155.531 40.8384Z" fill="#0C1026"/>
<path d="M186.261 45.9894H172.517V48.0186C172.517 49.9177 173.028 51.4006 174.049 52.4672C175.07 53.5339 176.575 54.0672 178.565 54.0672C180.816 54.0672 182.963 53.5209 185.005 52.4282C185.109 52.3762 185.266 52.4933 185.476 52.7794C185.685 53.0396 185.829 53.3128 185.908 53.5989C186.012 53.8851 186.012 54.0802 185.908 54.1843C183.787 55.381 181.366 55.9793 178.643 55.9793C176.052 55.9793 174.023 55.2899 172.557 53.9111C171.117 52.5323 170.397 50.6202 170.397 48.1747V41.7359C170.397 39.3945 171.13 37.5084 172.596 36.0775C174.088 34.6467 175.96 33.9313 178.211 33.9313C180.646 33.9313 182.596 34.6727 184.062 36.1556C185.528 37.6124 186.261 39.6156 186.261 42.1651V45.9894ZM184.141 44.2724V41.97C184.141 39.9668 183.578 38.4319 182.452 37.3653C181.327 36.2987 179.913 35.7653 178.211 35.7653C176.562 35.7653 175.201 36.2987 174.127 37.3653C173.054 38.4059 172.517 39.9018 172.517 41.853V44.2724H184.141Z" fill="#0C1026"/>
<path d="M204.766 45.9894H191.022V48.0186C191.022 49.9177 191.533 51.4006 192.554 52.4672C193.575 53.5339 195.08 54.0672 197.07 54.0672C199.321 54.0672 201.468 53.5209 203.51 52.4282C203.614 52.3762 203.771 52.4933 203.981 52.7794C204.19 53.0396 204.334 53.3128 204.413 53.5989C204.517 53.8851 204.517 54.0802 204.413 54.1843C202.292 55.381 199.871 55.9793 197.148 55.9793C194.556 55.9793 192.528 55.2899 191.062 53.9111C189.622 52.5323 188.902 50.6202 188.902 48.1747V41.7359C188.902 39.3945 189.635 37.5084 191.101 36.0775C192.593 34.6467 194.465 33.9313 196.716 33.9313C199.151 33.9313 201.101 34.6727 202.567 36.1556C204.033 37.6124 204.766 39.6156 204.766 42.1651V45.9894ZM202.646 44.2724V41.97C202.646 39.9668 202.083 38.4319 200.957 37.3653C199.831 36.2987 198.418 35.7653 196.716 35.7653C195.067 35.7653 193.706 36.2987 192.632 37.3653C191.559 38.4059 191.022 39.9018 191.022 41.853V44.2724H202.646Z" fill="#0C1026"/>
<path d="M223.504 55.433C223.504 55.5891 223.15 55.6672 222.444 55.6672C221.737 55.6672 221.383 55.5891 221.383 55.433V41.1115C221.383 37.7295 220.022 36.0385 217.3 36.0385C216.043 36.0385 214.813 36.4808 213.608 37.3653C212.43 38.2238 211.409 39.2904 210.546 40.5652V55.433C210.546 55.5891 210.192 55.6672 209.485 55.6672C208.778 55.6672 208.425 55.5891 208.425 55.433V34.4386C208.425 34.2825 208.778 34.2044 209.485 34.2044C210.166 34.2044 210.506 34.2825 210.506 34.4386V38.2238C212.548 35.3621 215.022 33.9313 217.928 33.9313C219.629 33.9313 220.978 34.5036 221.972 35.6483C222.993 36.7929 223.504 38.3018 223.504 40.175V55.433Z" fill="#0C1026"/>
<path d="M236.296 55.9793C234.725 55.9793 233.39 55.6802 232.29 55.0818C231.191 54.4574 230.379 53.69 229.856 52.7794V63.2376C229.856 63.3937 229.502 63.4718 228.796 63.4718C228.089 63.4718 227.735 63.3937 227.735 63.2376V34.4386C227.735 34.2825 228.089 34.2044 228.796 34.2044C229.476 34.2044 229.816 34.2825 229.816 34.4386V37.4043C230.366 36.4417 231.178 35.6223 232.251 34.9459C233.351 34.2695 234.66 33.9313 236.178 33.9313C238.482 33.9313 240.301 34.5816 241.636 35.8824C242.997 37.1832 243.678 39.0693 243.678 41.5408V48.3698C243.678 50.8153 243.01 52.7014 241.675 54.0282C240.34 55.3289 238.547 55.9793 236.296 55.9793ZM235.55 35.8824C233.953 35.8824 232.605 36.4157 231.505 37.4824C230.406 38.523 229.856 39.7587 229.856 41.1896V48.4479C229.856 50.1649 230.432 51.5437 231.584 52.5843C232.735 53.5989 234.188 54.1062 235.942 54.1062C239.686 54.1062 241.558 52.077 241.558 48.0186V41.892C241.558 37.8856 239.555 35.8824 235.55 35.8824Z" fill="#0C1026"/>
<path d="M262.393 55.433C262.393 55.5891 262.039 55.6672 261.333 55.6672C260.626 55.6672 260.272 55.5891 260.272 55.433V40.7213C260.272 39.2384 259.88 38.0937 259.094 37.2872C258.335 36.4547 257.367 36.0385 256.189 36.0385C255.456 36.0385 254.723 36.1946 253.99 36.5068C253.257 36.819 252.628 37.2092 252.105 37.6775C251.581 38.1197 251.11 38.575 250.691 39.0433C250.272 39.4855 249.958 39.8498 249.749 40.1359L249.434 40.6042V55.433C249.434 55.5891 249.081 55.6672 248.374 55.6672C247.667 55.6672 247.314 55.5891 247.314 55.433V26.5169C247.314 26.3608 247.68 26.2827 248.413 26.2827C249.094 26.2827 249.434 26.3608 249.434 26.5169V38.2238C251.476 35.3621 253.937 33.9313 256.817 33.9313C258.518 33.9313 259.867 34.5036 260.861 35.6483C261.882 36.7929 262.393 38.3018 262.393 40.175V55.433Z" fill="#0C1026"/>
<path d="M273.889 55.9793C271.297 55.9793 269.281 55.3289 267.842 54.0282C266.428 52.7014 265.721 50.8153 265.721 48.3698V41.5408C265.721 39.0953 266.428 37.2222 267.842 35.9214C269.281 34.5946 271.297 33.9313 273.889 33.9313C276.507 33.9313 278.535 34.5946 279.975 35.9214C281.415 37.2222 282.135 39.0953 282.135 41.5408V48.3698C282.135 50.7893 281.415 52.6624 279.975 53.9892C278.535 55.3159 276.507 55.9793 273.889 55.9793ZM280.015 41.892C280.015 37.8596 277.973 35.8434 273.889 35.8434C271.925 35.8434 270.42 36.3247 269.373 37.2872C268.352 38.2238 267.842 39.7587 267.842 41.892V48.0186C267.842 52.077 269.857 54.1062 273.889 54.1062C275.878 54.1062 277.397 53.6379 278.444 52.7014C279.491 51.7388 280.015 50.1779 280.015 48.0186V41.892Z" fill="#0C1026"/>
<path d="M300.86 55.433C300.86 55.5891 300.507 55.6672 299.8 55.6672C299.093 55.6672 298.739 55.5891 298.739 55.433V41.1115C298.739 37.7295 297.378 36.0385 294.656 36.0385C293.399 36.0385 292.169 36.4808 290.964 37.3653C289.786 38.2238 288.765 39.2904 287.902 40.5652V55.433C287.902 55.5891 287.548 55.6672 286.841 55.6672C286.135 55.6672 285.781 55.5891 285.781 55.433V34.4386C285.781 34.2825 286.135 34.2044 286.841 34.2044C287.522 34.2044 287.862 34.2825 287.862 34.4386V38.2238C289.904 35.3621 292.378 33.9313 295.284 33.9313C296.986 33.9313 298.334 34.5036 299.328 35.6483C300.349 36.7929 300.86 38.3018 300.86 40.175V55.433Z" fill="#0C1026"/>
<path d="M320.052 45.9894H306.309V48.0186C306.309 49.9177 306.819 51.4006 307.84 52.4672C308.861 53.5339 310.366 54.0672 312.356 54.0672C314.607 54.0672 316.754 53.5209 318.796 52.4282C318.901 52.3762 319.058 52.4933 319.267 52.7794C319.476 53.0396 319.62 53.3128 319.699 53.5989C319.804 53.8851 319.804 54.0802 319.699 54.1843C317.579 55.381 315.157 55.9793 312.434 55.9793C309.843 55.9793 307.814 55.2899 306.348 53.9111C304.908 52.5323 304.188 50.6202 304.188 48.1747V41.7359C304.188 39.3945 304.921 37.5084 306.387 36.0775C307.879 34.6467 309.751 33.9313 312.002 33.9313C314.437 33.9313 316.387 34.6727 317.853 36.1556C319.319 37.6124 320.052 39.6156 320.052 42.1651V45.9894ZM317.932 44.2724V41.97C317.932 39.9668 317.369 38.4319 316.243 37.3653C315.118 36.2987 313.704 35.7653 312.002 35.7653C310.353 35.7653 308.992 36.2987 307.919 37.3653C306.845 38.4059 306.309 39.9018 306.309 41.853V44.2724H317.932Z" fill="#0C1026"/>
</g>
<defs>
<clipPath id="clip0_567_76418">
<rect width="320" height="91.0092" fill="white"/>
</clipPath>
</defs>
</svg>
