<svg width="32" height="32" viewBox="0 0 32 32" fill="none" xmlns="http://www.w3.org/2000/svg">
<g id="map008">
<path id="Vector" opacity="0.3" d="M24.0831 20.4599L17.5498 27.6598C16.7498 28.5931 15.4164 28.5931 14.6164 27.6598L8.08314 20.4599C6.08314 18.1932 5.01648 15.2596 5.41648 11.9264C6.08314 7.12635 9.94981 3.25981 14.7498 2.72647C21.1498 2.05981 26.6165 6.99302 26.6165 13.2597C26.7498 16.0596 25.6831 18.5932 24.0831 20.4599ZM17.4164 13.3931C17.4164 12.5931 16.8831 12.0598 16.0831 12.0598C15.2831 12.0598 14.7498 12.5931 14.7498 13.3931V17.3931H17.4164V13.3931Z" fill="#00C8FF"/>
<path id="Vector_2" d="M16.8833 7.39375C16.35 6.99375 15.6833 6.99375 15.2833 7.39375L10.75 10.7271V16.0604C10.75 16.8604 11.2833 17.3937 12.0833 17.3937H14.75V13.3937C14.75 12.5937 15.2833 12.0604 16.0833 12.0604C16.8833 12.0604 17.4167 12.5937 17.4167 13.3937V17.3937H20.0833C20.8833 17.3937 21.4167 16.8604 21.4167 16.0604V10.7271L16.8833 7.39375Z" fill="#00C8FF"/>
</g>
</svg>
