<svg width="32" height="32" viewBox="0 0 32 32" fill="none" xmlns="http://www.w3.org/2000/svg">
<g id="map002">
<path id="Vector" d="M11.6 5.60074L5.33329 8.40087V25.2007L11.6 22.4008V25.3341L4.13329 28.6675C3.46663 28.9341 2.66663 28.5341 2.66663 27.7341V8.00081C2.66663 7.20081 3.06663 6.53407 3.86663 6.26741L11.6 2.80078V5.60074Z" fill="#00C8FF"/>
<path id="Vector_2" d="M20.4 26.399L26.6667 23.5989V6.79892L20.4 9.59888V6.66561L27.8667 3.33228C28.5334 3.06561 29.3334 3.46555 29.3334 4.26555V23.9989C29.3334 24.7989 28.9334 25.4657 28.1334 25.7324L20.4 29.1988V26.399Z" fill="#00C8FF"/>
<path id="Vector_3" opacity="0.3" d="M20.4 9.60074L26.6667 6.80078V23.6008L20.4 26.4008V9.60074Z" fill="#00C8FF"/>
<path id="Vector_4" opacity="0.3" d="M11.6 5.59928V2.66602L20.5333 6.66602V9.59928L11.6 5.59928ZM11.6 22.3993V25.3327L20.5333 29.3327V26.3993L11.6 22.3993Z" fill="#00C8FF"/>
<path id="Vector_5" opacity="0.3" d="M11.6 22.3997L5.33337 25.1995V8.39974L11.6 5.59961V22.3997Z" fill="#00C8FF"/>
</g>
</svg>
