<svg width="32" height="32" viewBox="0 0 32 32" fill="none" xmlns="http://www.w3.org/2000/svg">
<g id="map003">
<path id="Vector" d="M11.1995 27.3424C9.73288 27.3424 8.53288 26.1424 8.53288 24.6758C8.53288 23.2091 9.73288 22.0091 11.1995 22.0091H13.1995C15.7329 22.0091 17.8662 19.8758 17.8662 17.3424C17.8662 14.8091 15.7329 12.6758 13.1995 12.6758H10.7995L8.79954 14.9424C8.66621 15.0758 8.39954 15.2091 8.13288 15.3424C8.26621 15.3424 8.26621 15.3424 8.39954 15.3424H13.0662C14.1329 15.3424 15.0662 16.2758 15.0662 17.3424C15.0662 18.4091 14.1329 19.3424 13.0662 19.3424H11.1995C8.26621 19.3424 5.86621 21.7424 5.86621 24.6758C5.86621 27.6091 8.26621 30.0091 11.1995 30.0091H20.5329V27.3424H11.1995Z" fill="#00C8FF"/>
<path id="Vector_2" opacity="0.3" d="M11.8662 11.6091L8.9329 14.9424C8.39957 15.4757 7.46623 15.4757 6.9329 14.9424L3.99957 11.6091C2.9329 10.4091 2.39955 8.67578 2.79955 6.80911C3.19955 4.80911 4.79955 3.20911 6.79955 2.80911C10.2662 2.00911 13.3329 4.6758 13.3329 8.00914C13.1996 9.34247 12.6662 10.6757 11.8662 11.6091Z" fill="#00C8FF"/>
<path id="Vector_3" d="M7.86621 10.0098C8.97078 10.0098 9.86621 9.11434 9.86621 8.00977C9.86621 6.90521 8.97078 6.00977 7.86621 6.00977C6.76165 6.00977 5.86621 6.90521 5.86621 8.00977C5.86621 9.11434 6.76165 10.0098 7.86621 10.0098Z" fill="#00C8FF"/>
<path id="Vector_4" opacity="0.3" d="M23.1994 30.0091H20.5327V18.0091C20.5327 17.2091 21.066 16.6758 21.866 16.6758C22.666 16.6758 23.1994 17.2091 23.1994 18.0091V30.0091Z" fill="#00C8FF"/>
<path id="Vector_5" d="M28.5327 24.6764H20.5327V18.0098H28.5327C29.5994 18.0098 30.1327 19.2098 29.466 20.0098L28.3994 21.3431L29.466 22.6764C30.266 23.4764 29.5994 24.6764 28.5327 24.6764Z" fill="#00C8FF"/>
</g>
</svg>
