<svg width="32" height="32" viewBox="0 0 32 32" fill="none" xmlns="http://www.w3.org/2000/svg">
<g id="med001">
<path id="Vector" opacity="0.3" d="M16.0334 6.3C12.9667 3.23333 8.03341 3.23333 4.96675 6.3C1.90008 9.36667 1.90008 14.3 4.96675 17.3667L15.1001 27.5C15.6334 28.0333 16.4334 28.0333 16.9667 27.5L27.1001 17.3667C30.1667 14.3 30.1667 9.36667 27.1001 6.3C24.0334 3.23333 19.1001 3.23333 16.0334 6.3Z" fill="#00C8FF"/>
<path id="Vector_2" d="M18.6999 22.8332H18.5666C18.0333 22.6998 17.4999 22.2998 17.3666 21.7665L15.8999 14.8332L14.6999 19.0998C14.5666 19.6332 14.1666 20.0332 13.6333 20.0332C13.0999 20.1665 12.5666 19.8998 12.2999 19.4998L10.2999 16.4332L8.69992 17.2332C8.56659 17.3665 8.29992 17.3665 8.16658 17.3665H4.16659C3.36659 17.3665 2.83325 16.8332 2.83325 16.0332C2.83325 15.2332 3.36659 14.6998 4.16659 14.6998H7.89992L10.2999 13.4998C10.9666 13.2332 11.6333 13.3665 12.0333 13.8998L13.0999 15.4998L14.9666 8.96648C15.0999 8.43315 15.6333 8.0332 16.2999 8.0332C16.9666 8.0332 17.3666 8.43311 17.4999 9.09978L19.3666 17.3665L20.2999 15.3665C20.5666 14.9665 20.9666 14.5665 21.4999 14.5665H28.1666C28.9666 14.5665 29.4999 15.0998 29.4999 15.8998C29.4999 16.6998 28.9666 17.2332 28.1666 17.2332H22.2999L20.0333 21.7665C19.6333 22.5665 19.2332 22.8332 18.6999 22.8332Z" fill="#00C8FF"/>
</g>
</svg>
