<svg width="50" height="50" viewBox="0 0 50 50" fill="none" xmlns="http://www.w3.org/2000/svg">
    <g clip-path="url(#clip0_567_72244)">
        <path fill-rule="evenodd" clip-rule="evenodd"
              d="M23.265 14.3577C23.924 14.461 24.0573 14.325 24.1446 13.6891C24.2876 12.7191 24.6283 11.0835 25.4247 9.407C26.2869 7.5991 27.6599 5.6126 29.5803 4.28247C31.1979 3.17667 33.849 1.95191 35.9014 1.50765C37.5804 1.13918 39.1535 1.06885 40.5032 1.19627C43.2771 1.45056 44.8114 2.2569 45.5816 3.30053C45.8672 3.69041 46.0235 4.17138 46.0299 4.48276C46.0519 5.00186 45.8297 5.67927 45.0984 6.34428C44.3868 6.98489 42.8688 7.79536 40.7988 8.50507C38.6501 9.23451 35.7137 10.0048 32.7868 10.6915C30.336 11.2671 28.9415 11.757 27.7772 12.1595C25.8404 12.8289 25.2568 14.7944 26.4636 15.3946C28.2078 16.262 29.2988 17.169 30.2285 17.94C31.6231 19.1064 33.2427 20.4788 35.2534 22.9539C37.0751 25.2236 40.0553 29.5556 41.1279 33.7605C42.3151 38.3768 41.5732 42.7547 39.0123 43.9773C36.5015 45.1778 33.1555 43.4454 30.8067 40.9612C28.572 38.6035 27.0124 35.8264 25.5458 31.5429C24.274 27.861 23.7584 22.522 23.7606 19.729C23.7606 18.7986 23.7458 18.6 23.7827 17.7598C23.8679 17.0277 21.9325 16.422 19.8522 17.7871C17.485 19.3406 15.1658 22.1559 13.7966 23.791C13.2009 24.5046 12.3936 25.5534 11.538 26.6533C10.4102 28.0961 9.16519 29.5986 8.03024 30.4387C6.3222 31.7085 3.57799 32.2335 1.65581 30.8351C0.587325 30.056 0.0185603 28.5852 0.000700113 27.0898C-0.0152268 26.037 0.240708 25.0846 0.756076 24.1451C1.39996 22.9917 2.46007 21.7539 4.14067 20.3364C5.87854 18.8797 8.65277 17.2321 11.4329 16.093C15.6735 14.352 20.2393 13.8042 23.265 14.3577"
              fill="white"/>


    </g>
    <defs>
        <clipPath id="clip0_567_72244">
            <rect width="50" height="45" fill="white"/>
        </clipPath>
    </defs>
</svg>
