<svg width="32" height="32" viewBox="0 0 32 32" fill="none" xmlns="http://www.w3.org/2000/svg">
<g id="teh001">
<path id="Vector" opacity="0.3" d="M28 17.3327H20V14.666H28C28.8 14.666 29.3333 14.1327 29.3333 13.3327C29.3333 12.5327 28.8 11.9993 28 11.9993H20V3.99935C20 3.19935 19.4666 2.66602 18.6666 2.66602C17.8666 2.66602 17.3333 3.19935 17.3333 3.99935V11.9993H14.6666V3.99935C14.6666 3.19935 14.1333 2.66602 13.3333 2.66602C12.5333 2.66602 12 3.19935 12 3.99935V11.9993H3.99996C3.19996 11.9993 2.66663 12.5327 2.66663 13.3327C2.66663 14.1327 3.19996 14.666 3.99996 14.666H12V17.3327H3.99996C3.19996 17.3327 2.66663 17.866 2.66663 18.666C2.66663 19.466 3.19996 19.9993 3.99996 19.9993H12V27.9993C12 28.7993 12.5333 29.3327 13.3333 29.3327C14.1333 29.3327 14.6666 28.7993 14.6666 27.9993V19.9993H17.3333V27.9993C17.3333 28.7993 17.8666 29.3327 18.6666 29.3327C19.4666 29.3327 20 28.7993 20 27.9993V19.9993H28C28.8 19.9993 29.3333 19.466 29.3333 18.666C29.3333 17.866 28.8 17.3327 28 17.3327Z" fill="#00C8FF"/>
<path id="Vector_2" d="M21.3334 22.6673H10.6667C9.86671 22.6673 9.33337 22.134 9.33337 21.334V10.6673C9.33337 9.86732 9.86671 9.33398 10.6667 9.33398H21.3334C22.1334 9.33398 22.6667 9.86732 22.6667 10.6673V21.334C22.6667 22.134 22.1334 22.6673 21.3334 22.6673ZM18.6667 13.334H13.3334V18.6673H18.6667V13.334Z" fill="#00C8FF"/>
</g>
</svg>
