<svg width="14" height="14" viewBox="0 0 14 14" fill="none" xmlns="http://www.w3.org/2000/svg">
<path fill-rule="evenodd" clip-rule="evenodd" d="M11.9679 6.44545C11.7124 4.12878 9.87347 2.28989 7.5568 2.03434V0.889893H6.44569V2.03434C4.12903 2.28989 2.29014 4.12878 2.03458 6.44545H0.890137V7.55656H2.03458C2.29014 9.87323 4.12903 11.7121 6.44569 11.9677V13.1121H7.5568V11.9677C9.87347 11.7121 11.7124 9.87323 11.9679 7.55656H13.1124V6.44545H11.9679ZM7.00125 4.77878C5.77347 4.77878 4.77903 5.77323 4.77903 7.001C4.77903 8.22878 5.77347 9.22323 7.00125 9.22323C8.22903 9.22323 9.22347 8.22878 9.22347 7.001C9.22347 5.77323 8.22903 4.77878 7.00125 4.77878ZM3.11236 7.001C3.11236 9.151 4.85125 10.8899 7.00125 10.8899C9.15125 10.8899 10.8901 9.151 10.8901 7.001C10.8901 4.851 9.15125 3.11211 7.00125 3.11211C4.85125 3.11211 3.11236 4.851 3.11236 7.001Z" fill="#7E8299"/>
</svg>
