<svg width="24" height="25" viewBox="0 0 24 25" fill="none" xmlns="http://www.w3.org/2000/svg">
<path opacity="0.3" d="M8.66675 9.17126C8.66675 8.67126 9.00008 8.33793 9.50008 8.33793H15.3334V5.0046C15.3334 4.5046 15.0001 4.17126 14.5001 4.17126H4.50008C4.00008 4.17126 3.66675 4.5046 3.66675 5.0046V13.3379C3.66675 13.8379 4.00008 14.1713 4.50008 14.1713H6.16675V15.9213C6.16675 16.5046 6.83341 16.7546 7.25007 16.3379L8.66675 14.9213V9.17126Z" fill="white"/>
<path d="M20.3334 9.17129V17.5046C20.3334 18.0046 20.0001 18.338 19.5001 18.338H17.8334V20.088C17.8334 20.6713 17.1667 20.9213 16.7501 20.5046L14.5001 18.2546H9.50008C9.00008 18.2546 8.66675 17.9213 8.66675 17.4213V9.08797C8.66675 8.58797 9.00008 8.25464 9.50008 8.25464H19.5001C20.0001 8.33797 20.3334 8.67129 20.3334 9.17129ZM17.8334 11.6713C17.8334 11.1713 17.5001 10.838 17.0001 10.838H12.0001C11.5001 10.838 11.1667 11.1713 11.1667 11.6713C11.1667 12.1713 11.5001 12.5046 12.0001 12.5046H17.0001C17.5001 12.5046 17.8334 12.1713 17.8334 11.6713ZM16.1667 15.0046C16.1667 14.5046 15.8334 14.1713 15.3334 14.1713H12.0001C11.5001 14.1713 11.1667 14.5046 11.1667 15.0046C11.1667 15.5046 11.5001 15.838 12.0001 15.838H15.3334C15.8334 15.838 16.1667 15.5046 16.1667 15.0046Z" fill="white"/>
</svg>
